<?xml version="1.0" encoding="UTF-8" standalone="no"?>
<!-- Created with Inkscape (http://www.inkscape.org/) -->

<svg
   xmlns:dc="http://purl.org/dc/elements/1.1/"
   xmlns:cc="http://creativecommons.org/ns#"
   xmlns:rdf="http://www.w3.org/1999/02/22-rdf-syntax-ns#"
   xmlns:svg="http://www.w3.org/2000/svg"
   xmlns="http://www.w3.org/2000/svg"
   xmlns:sodipodi="http://sodipodi.sourceforge.net/DTD/sodipodi-0.dtd"
   xmlns:inkscape="http://www.inkscape.org/namespaces/inkscape"
   id="svg2"
   version="1.1"
   inkscape:version="0.91 r13725"
   xml:space="preserve"
   width="1000"
   height="1000"
   viewBox="0 0 1000 1000"
   sodipodi:docname="akashpinnaka.svg"><metadata
     id="metadata8"><rdf:RDF><cc:Work
         rdf:about=""><dc:format>image/svg+xml</dc:format><dc:type
           rdf:resource="http://purl.org/dc/dcmitype/StillImage" /><dc:title></dc:title></cc:Work></rdf:RDF></metadata><defs
     id="defs6"><clipPath
       clipPathUnits="userSpaceOnUse"
       id="clipPath18"><path
         d="M 0,800 800,800 800,0 0,0 0,800 Z"
         id="path20"
         inkscape:connector-curvature="0" /></clipPath><clipPath
       clipPathUnits="userSpaceOnUse"
       id="clipPath66"><path
         d="m 286.143,364.394 78.929,0 0,-80.242 -78.929,0 0,80.242 z"
         id="path68"
         inkscape:connector-curvature="0" /></clipPath><clipPath
       clipPathUnits="userSpaceOnUse"
       id="clipPath90"><path
         d="m 329.464,341.373 118.96,0 0,-101.391 -118.96,0 0,101.391 z"
         id="path92"
         inkscape:connector-curvature="0" /></clipPath><clipPath
       clipPathUnits="userSpaceOnUse"
       id="clipPath126"><path
         d="m 324.539,468.377 19.067,0 0,-27.015 -19.067,0 0,27.015 z"
         id="path128"
         inkscape:connector-curvature="0" /></clipPath><clipPath
       clipPathUnits="userSpaceOnUse"
       id="clipPath150"><path
         d="m 458.367,468.529 19.067,0 0,-27.016 -19.067,0 0,27.016 z"
         id="path152"
         inkscape:connector-curvature="0" /></clipPath><clipPath
       clipPathUnits="userSpaceOnUse"
       id="clipPath202"><path
         d="m 362.797,489.699 11.947,0 0,-3.604 -11.947,0 0,3.604 z"
         id="path204"
         inkscape:connector-curvature="0" /></clipPath><clipPath
       clipPathUnits="userSpaceOnUse"
       id="clipPath218"><path
         d="m 425.917,488.82 10.521,0 0,-2.876 -10.521,0 0,2.876 z"
         id="path220"
         inkscape:connector-curvature="0" /></clipPath><clipPath
       clipPathUnits="userSpaceOnUse"
       id="clipPath234"><path
         d="m 367.505,427.627 28.577,0 0,-17.144 -28.577,0 0,17.144 z"
         id="path236"
         inkscape:connector-curvature="0" /></clipPath><clipPath
       clipPathUnits="userSpaceOnUse"
       id="clipPath250"><path
         d="m 401.234,427.908 31.203,0 0,-15.429 -31.203,0 0,15.429 z"
         id="path252"
         inkscape:connector-curvature="0" /></clipPath><clipPath
       clipPathUnits="userSpaceOnUse"
       id="clipPath266"><path
         d="m 346.155,423.286 108.625,0 0,-55.919 -108.625,0 0,55.919 z"
         id="path268"
         inkscape:connector-curvature="0" /></clipPath><clipPath
       clipPathUnits="userSpaceOnUse"
       id="clipPath290"><path
         d="m 367.813,414.406 10.834,0 0,-25.941 -10.834,0 0,25.941 z"
         id="path292"
         inkscape:connector-curvature="0" /></clipPath><clipPath
       clipPathUnits="userSpaceOnUse"
       id="clipPath306"><path
         d="m 425.462,416.579 7.4,0 0,-30.766 -7.4,0 0,30.766 z"
         id="path308"
         inkscape:connector-curvature="0" /></clipPath><clipPath
       clipPathUnits="userSpaceOnUse"
       id="clipPath322"><path
         d="m 344.061,433.01 12.529,0 0,-20.221 -12.529,0 0,20.221 z"
         id="path324"
         inkscape:connector-curvature="0" /></clipPath><clipPath
       clipPathUnits="userSpaceOnUse"
       id="clipPath366"><path
         d="m 371.795,367.669 150.539,0 0,-132.035 -150.539,0 0,132.035 z"
         id="path368"
         inkscape:connector-curvature="0" /></clipPath></defs><sodipodi:namedview
     pagecolor="#ffffff"
     bordercolor="#666666"
     borderopacity="1"
     objecttolerance="10"
     gridtolerance="10"
     guidetolerance="10"
     inkscape:pageopacity="0"
     inkscape:pageshadow="2"
     inkscape:window-width="1366"
     inkscape:window-height="739"
     id="namedview4"
     showgrid="false"
     inkscape:zoom="0.52454687"
     inkscape:cx="500"
     inkscape:cy="500"
     inkscape:window-x="0"
     inkscape:window-y="0"
     inkscape:window-maximized="1"
     inkscape:current-layer="g14" /><g
     id="g10"
     inkscape:groupmode="layer"
     inkscape:label="akashpinnaka"
     transform="matrix(1.25,0,0,-1.25,0,1000)"><g
       id="g14"
       transform="matrix(2.2692745,0,0,2.2692745,-516.00982,-522.54613)"><g
         id="g16"
         clip-path="url(#clipPath18)"
         transform="translate(7.3928405,0)"><g
           id="g22"
           transform="translate(359.7108,239.0703)"><path
             d="M 0,0 C 0,0 34.795,-9.174 77.25,0.768 L 0,0 Z"
             style="fill:#24386f;fill-opacity:1;fill-rule:nonzero;stroke:none"
             id="path24"
             inkscape:connector-curvature="0" /></g><g
           id="g26"
           transform="translate(559.0488,395.1418)"><path
             d="m 0,0 c 0,-89.57 -72.611,-162.181 -162.181,-162.181 -89.571,0 -162.182,72.611 -162.182,162.181 0,89.57 72.611,162.181 162.182,162.181 C -72.611,162.181 0,89.57 0,0"
             style="fill:#c8dbb2;fill-opacity:1;fill-rule:nonzero;stroke:none"
             id="path28"
             inkscape:connector-curvature="0" /></g><g
           id="g30"
           transform="translate(396.8676,555.1545)"><path
             d="m 0,0 c -88.231,0 -160.013,-71.781 -160.013,-160.013 0,-88.231 71.782,-160.012 160.013,-160.012 88.231,0 160.012,71.781 160.012,160.012 C 160.012,-71.781 88.231,0 0,0 m 0,-324.363 c -90.623,0 -164.35,73.727 -164.35,164.35 0,90.623 73.727,164.351 164.35,164.351 90.623,0 164.35,-73.728 164.35,-164.351 0,-90.623 -73.727,-164.35 -164.35,-164.35"
             style="fill:#232222;fill-opacity:1;fill-rule:nonzero;stroke:none"
             id="path32"
             inkscape:connector-curvature="0" /></g><g
           id="g34"
           transform="translate(361.4241,239.0703)"><path
             d="M 0,0 C 0,0 34.795,-9.174 77.25,0.768 L 0,0 Z"
             style="fill:#24386f;fill-opacity:1;fill-rule:nonzero;stroke:none"
             id="path36"
             inkscape:connector-curvature="0" /></g><g
           id="g38"
           transform="translate(361.4241,239.0703)"><path
             d="M 0,0 C 0,0 -3.049,3.993 -1.174,4.743 0.701,5.493 16.625,6.249 17,6.249 c 0.375,0 76.875,0.25 76.875,0.25 0,0 -44.01,-17.67 -93.875,-6.499"
             style="fill:#f5fdff;fill-opacity:1;fill-rule:nonzero;stroke:none"
             id="path40"
             inkscape:connector-curvature="0" /></g><g
           id="g42"
           transform="translate(369.9543,237.4224)"><path
             d="m 0,0 c 0,0 29.291,-6.69 67.006,2.416 0,0 -49.15,-0.152 -50.551,0.144 C 15.055,2.855 0,0 0,0"
             style="fill:#3e3b3f;fill-opacity:1;fill-rule:nonzero;stroke:none"
             id="path44"
             inkscape:connector-curvature="0" /></g><g
           id="g46"
           transform="translate(523.1078,294.8022)"><path
             d="m 0,0 c -16.358,64.274 -83.759,72.943 -83.759,72.943 l -33.549,-5.991 -35.071,7.191 c 0,0 -77.564,-11.944 -87.528,-84.793 6.892,-6.916 31.186,-33.454 77.695,-45.082 l 44.745,0.504 0.317,0 31.074,0.264 C -35.38,-42.267 -8.097,-10.582 0,0"
             style="fill:#3e3b3f;fill-opacity:1;fill-rule:nonzero;stroke:none"
             id="path48"
             inkscape:connector-curvature="0" /></g><g
           id="g50"
           transform="translate(521.8335,292.6469)"><path
             d="M 0,0 2.721,1.167 3.18,1.766 2.971,2.587 C -5.636,36.404 -28.36,54.795 -45.907,64.27 -64.87,74.507 -81.56,76.743 -82.261,76.833 l -0.266,0.035 -33.485,-5.978 -35.05,7.186 -0.31,-0.048 c -0.805,-0.124 -19.959,-3.176 -40.646,-15.298 -19.163,-11.23 -43.106,-32.66 -48.348,-70.988 l -0.118,-0.859 0.612,-0.614 c 0.334,-0.335 0.709,-0.717 1.125,-1.141 8.08,-8.217 32.667,-33.222 77.385,-44.402 l 0.218,-0.055 20.24,-1.504 -8.013,5.141 -11.814,-0.132 c -43.625,10.967 -67.624,35.376 -75.52,43.406 -0.184,0.188 -0.36,0.367 -0.528,0.537 4.232,29.204 19.848,51.919 46.428,67.531 18.747,11.01 36.697,14.429 39.213,14.868 l 35.081,-7.191 33.605,5.999 C -80.288,73.005 -64.721,70.449 -47.57,61.19 -30.781,52.125 -9.084,34.612 -0.635,2.546 -0.078,0.785 0.384,0.477 0,0"
             style="fill:#0a0a0a;fill-opacity:1;fill-rule:nonzero;stroke:none"
             id="path52"
             inkscape:connector-curvature="0" /></g><g
           id="g54"
           transform="translate(369.147,390.1641)"><path
             d="m 0,0 0,-20.587 c 0,0 -7.025,-31.211 33.069,-31.211 0,0 38.304,-2.088 33.455,32.499 0,0 0.403,25.318 -0.966,26.077 C 64.189,7.537 0,0 0,0"
             style="fill:#c9a98d;fill-opacity:1;fill-rule:nonzero;stroke:none"
             id="path56"
             inkscape:connector-curvature="0" /></g><g
           id="g58"
           transform="translate(370.9545,388.5567)"><path
             d="m 0,0 -0.044,-19.376 c -0.024,-0.107 -2.361,-11.109 4.286,-19.388 5.125,-6.384 14.216,-9.62 27.019,-9.62 0.271,-0.005 17.478,-0.8 26.511,9.048 4.693,5.117 6.427,12.316 5.155,21.394 l -0.02,0.139 0.002,0.14 C 63.067,-7.74 62.925,3.293 62.435,6.624 55.977,6.37 22.981,2.689 0,0 m 32.609,-52.027 c -0.82,0 -1.33,0.024 -1.446,0.031 l -0.016,0 c -13.87,0 -23.911,3.703 -29.751,11.003 -7.269,9.087 -5.358,20.464 -5.011,22.201 l 0,22.007 1.597,0.188 c 64.772,7.604 65.989,6.928 66.645,6.563 1.031,-0.571 2.313,-1.283 1.899,-27.547 1.392,-10.141 -0.66,-18.287 -6.103,-24.212 -8.67,-9.439 -23.177,-10.234 -27.814,-10.234"
             style="fill:#232222;fill-opacity:1;fill-rule:nonzero;stroke:none"
             id="path60"
             inkscape:connector-curvature="0" /></g><g
           id="g62"><g
             id="g64" /><g
             id="g70"><g
               clip-path="url(#clipPath66)"
               id="g72"
               style="opacity:0.05999762"><g
                 transform="translate(365.0723,364.3937)"
                 id="g74"><path
                   d="m 0,0 c -2.679,-0.357 -49.679,-10.857 -71.679,-55.357 0,0 -6.219,-17.012 -7.25,-24.885 0,0 31.608,61.885 78.929,70.385 L 0,0 Z"
                   style="fill:#ffffff;fill-opacity:1;fill-rule:nonzero;stroke:none"
                   id="path76"
                   inkscape:connector-curvature="0" /></g></g></g></g><g
           id="g78"
           transform="translate(284.8335,284.9803)"><path
             d="m 0,0 0,-2.484 c 0,0 30.723,-35.325 76.063,-43.426 C 121.402,-54.011 67.75,9.667 67.083,9.667 66.417,9.667 0,0 0,0"
             style="fill:#3e3b3f;fill-opacity:1;fill-rule:nonzero;stroke:none"
             id="path80"
             inkscape:connector-curvature="0" /></g><g
           id="g82"
           transform="translate(361.4241,239.0703)"><path
             d="M 0,0 C 0,0 18.423,-2.677 19.665,-2.778 20.906,-2.879 41.801,5.998 41.73,6.329 41.659,6.66 24.659,16.41 24.659,16.41 L 0,0 Z"
             style="fill:#3e3b3f;fill-opacity:1;fill-rule:nonzero;stroke:none"
             id="path84"
             inkscape:connector-curvature="0" /></g><g
           id="g86"><g
             id="g88" /><g
             id="g94"><g
               clip-path="url(#clipPath90)"
               id="g96"
               style="opacity:0.21000701"><g
                 transform="translate(350.1193,341.3732)"
                 id="g98"><path
                   d="M 0,0 C 0,0 11.953,-29.996 69.611,-16.762 69.611,-16.762 21.828,-19.409 0,0"
                   style="fill:#1a161c;fill-opacity:1;fill-rule:nonzero;stroke:none"
                   id="path100"
                   inkscape:connector-curvature="0" /></g><g
                 transform="translate(363.5318,239.9823)"
                 id="g102"><path
                   d="M 0,0 C -18.922,33.764 -34.068,71.395 -34.068,71.395 -23.953,39.481 -14.699,16.497 -6.806,0 L 0,0 Z"
                   style="fill:#1a161c;fill-opacity:1;fill-rule:nonzero;stroke:none"
                   id="path104"
                   inkscape:connector-curvature="0" /></g><g
                 transform="translate(395.6283,239.9823)"
                 id="g106"><path
                   d="M 0,0 C -17.805,28.135 -31.339,53.985 -31.339,53.985 -23.094,27.972 -15.722,11.525 -9.219,0 L 0,0 Z"
                   style="fill:#1a161c;fill-opacity:1;fill-rule:nonzero;stroke:none"
                   id="path108"
                   inkscape:connector-curvature="0" /></g><g
                 transform="translate(448.4236,324.2973)"
                 id="g110"><path
                   d="m 0,0 c 0,0 -27.671,-17.076 -53.99,-18.387 0,0 29.566,-13.282 53.99,18.387"
                   style="fill:#1a161c;fill-opacity:1;fill-rule:nonzero;stroke:none"
                   id="path112"
                   inkscape:connector-curvature="0" /></g></g></g></g><g
           id="g114"
           transform="translate(339.55,475.9294)"><path
             d="m 0,0 c 0,0 -18.076,5.063 -21.234,-7.216 0,0 -3.604,-14.066 10.909,-24.265 0,0 17.392,-14.131 20.045,-14.576 2.653,-0.446 -3.29,23.855 -3.29,23.855 L 0,0 Z"
             style="fill:#c9a98d;fill-opacity:1;fill-rule:nonzero;stroke:none"
             id="path116"
             inkscape:connector-curvature="0" /></g><g
           id="g118"
           transform="translate(331.4922,475.4639)"><path
             d="m 0,0 c -2.617,0 -5.453,-0.399 -7.72,-1.709 -2.063,-1.191 -3.372,-2.963 -4.003,-5.415 -0.132,-0.53 -3.124,-13.218 10.318,-22.665 l 0.083,-0.063 c 7.125,-5.788 15.197,-11.934 18.304,-13.75 -0.024,3.442 -1.912,13.171 -3.951,21.509 L 6.858,-0.786 C 5.584,-0.5 2.929,0 0,0 m 17.851,-47.098 c -0.106,0 -0.214,0.009 -0.322,0.027 -2.739,0.46 -15.357,10.517 -20.702,14.859 -7.874,5.551 -10.581,12.237 -11.464,16.873 -0.965,5.062 -0.032,8.804 0.008,8.961 0.832,3.232 2.654,5.679 5.417,7.272 6.886,3.97 17.236,1.138 17.674,1.016 l 0.804,-0.225 6.663,-23.004 c 5.56,-22.731 3.85,-24.571 3.289,-25.176 -0.365,-0.392 -0.85,-0.603 -1.367,-0.603"
             style="fill:#0c0b0b;fill-opacity:1;fill-rule:nonzero;stroke:none"
             id="path120"
             inkscape:connector-curvature="0" /></g><g
           id="g122"><g
             id="g124" /><g
             id="g130"><g
               clip-path="url(#clipPath126)"
               id="g132"
               style="opacity:0.50999499"><g
                 transform="translate(324.539,464.6122)"
                 id="g134"><path
                   d="m 0,0 c 0,0 0.625,-11.984 11.616,-18.575 l 7.451,-4.676 -0.291,24.872 C 18.776,1.621 3.51,7.391 0,0"
                   style="fill:#af8254;fill-opacity:1;fill-rule:nonzero;stroke:none"
                   id="path136"
                   inkscape:connector-curvature="0" /></g></g></g></g><g
           id="g138"
           transform="translate(462.4232,476.0811)"><path
             d="m 0,0 c 0,0 18.076,5.063 21.234,-7.216 0,0 3.604,-14.066 -10.909,-24.265 0,0 -17.392,-14.131 -20.045,-14.576 -2.653,-0.446 3.29,23.855 3.29,23.855 L 0,0 Z"
             style="fill:#c9a98d;fill-opacity:1;fill-rule:nonzero;stroke:none"
             id="path140"
             inkscape:connector-curvature="0" /></g><g
           id="g142"
           transform="translate(463.6221,474.8291)"><path
             d="m 0,0 -6.188,-21.368 c -2.026,-8.29 -3.914,-18.018 -3.936,-21.453 3.082,1.802 11.168,7.958 18.304,13.756 l 0.084,0.063 c 13.441,9.447 10.451,22.134 10.317,22.67 -0.629,2.447 -1.938,4.218 -4.002,5.41 C 9.773,1.853 2.413,0.54 0,0 m -10.992,-46.312 c -0.517,0 -1.002,0.211 -1.366,0.604 -2.272,2.444 1.901,19.507 3.272,25.114 l 6.678,23.065 0.804,0.225 C -1.168,2.819 9.184,5.65 16.071,1.68 c 2.763,-1.593 4.586,-4.039 5.417,-7.27 0.038,-0.152 3.677,-15.166 -11.457,-25.836 -5.344,-4.342 -17.962,-14.398 -20.701,-14.859 -0.108,-0.018 -0.216,-0.027 -0.322,-0.027"
             style="fill:#0c0b0b;fill-opacity:1;fill-rule:nonzero;stroke:none"
             id="path144"
             inkscape:connector-curvature="0" /></g><g
           id="g146"><g
             id="g148" /><g
             id="g154"><g
               clip-path="url(#clipPath150)"
               id="g156"
               style="opacity:0.50999499"><g
                 transform="translate(477.4343,464.7639)"
                 id="g158"><path
                   d="m 0,0 c 0,0 -0.625,-11.984 -11.616,-18.575 l -7.451,-4.676 0.291,24.872 c 0,0 15.266,5.77 18.776,-1.621"
                   style="fill:#af8254;fill-opacity:1;fill-rule:nonzero;stroke:none"
                   id="path160"
                   inkscape:connector-curvature="0" /></g></g></g></g><g
           id="g162"
           transform="translate(471.3011,547.5652)"><path
             d="m 0,0 -20.884,18.195 c -36.46,17.967 -59.209,9.767 -59.209,9.767 l 2.074,4.784 c -36.13,-4.807 -55.268,-31.772 -55.268,-31.772 0,0 0.011,-0.001 0.012,-0.002 -8.855,-11.166 -8.019,-25.097 -8.019,-25.097 -0.18,-6.362 1.68,-19.004 3.409,-29.192 l -0.347,-0.018 c 1.491,-6.35 2.116,-17.963 2.116,-17.963 -2.874,-19.588 5.574,-31.863 5.574,-31.863 l 1.999,17.074 c 16.408,6.192 58.516,21.949 62.729,22.169 5.246,0.273 56.322,-21.605 55.893,-17.025 -0.428,4.58 2.58,21.829 2.58,21.829 3.37,8.065 3.036,14.768 3.036,14.768 l 3.653,5.742 C 3.584,-20.151 -1.027,-4.802 -2.333,-1.033 -0.845,-0.415 0,0 0,0"
             style="fill:#353535;fill-opacity:1;fill-rule:nonzero;stroke:none"
             id="path164"
             inkscape:connector-curvature="0" /></g><g
           id="g166"
           transform="translate(334.8979,492.8237)"><path
             d="m 0,0 c 1.238,-6.524 1.761,-16.038 1.785,-16.477 l 0.008,-0.149 -0.022,-0.149 C -0.023,-29.004 2.767,-38.35 4.939,-43.392 l 1.538,13.127 0.854,0.323 c 21.78,8.22 58.951,22.043 63.18,22.263 2.365,0.107 10.156,-2.691 23.737,-7.679 10.751,-3.949 26.646,-9.787 30.697,-9.992 -0.054,5.719 2.522,20.566 2.639,21.235 l 0.094,0.321 c 3.185,7.622 2.925,14.053 2.922,14.117 l -0.022,0.475 3.768,5.926 c 4.005,17.759 -0.278,32.412 -1.692,36.493 l -0.463,1.335 1.305,0.542 c 0.049,0.021 0.099,0.041 0.148,0.062 L 114.681,71.677 C 79.417,88.993 57.039,81.371 56.816,81.292 l -3.253,-1.159 2.369,5.47 C 27.581,80.854 10.266,62.12 5.611,56.467 L 5.634,56.459 4.304,54.782 C -4.072,44.22 -3.4,30.839 -3.393,30.705 l 0.004,-0.064 -0.002,-0.067 C -3.533,25.565 -2.361,15.573 -0.003,1.676 L 0.279,0.015 0,0 Z m 6.887,-52.556 -2.262,3.286 c -0.357,0.52 -8.705,12.928 -5.844,32.779 -0.079,1.361 -0.716,11.788 -2.07,17.555 l -0.41,1.748 0.459,0.023 c -1.592,9.561 -3.314,21.536 -3.151,27.761 -0.062,1.218 -0.528,14.682 8.177,25.838 l 0.107,0.149 c 0.195,0.275 19.937,27.554 56.294,32.391 l 2.628,0.35 -1.894,-4.37 c 7.491,1.611 27.955,3.769 57.261,-10.672 l 0.322,-0.215 22.584,-19.676 -2.023,-0.995 c -0.024,-0.012 -0.423,-0.208 -1.14,-0.525 1.753,-5.609 5.206,-19.999 1.288,-37.069 l -0.057,-0.252 -3.548,-5.576 c 0.012,-1.733 -0.185,-7.717 -3.097,-14.768 -0.844,-4.873 -2.867,-17.715 -2.535,-21.268 0.065,-0.689 -0.21,-1.324 -0.753,-1.742 -2.167,-1.67 -9.992,0.809 -34.01,9.63 -9.698,3.562 -20.697,7.617 -22.546,7.499 -2.689,-0.14 -26.194,-8.465 -61.423,-21.752 L 6.887,-52.556 Z"
             style="fill:#0c0b0b;fill-opacity:1;fill-rule:nonzero;stroke:none"
             id="path168"
             inkscape:connector-curvature="0" /></g><g
           id="g170"
           transform="translate(348.7705,511.2698)"><path
             d="M 0,0 C 0,0 -8.697,-6.602 -7.809,-16.682 L -9.22,-35.34 c 0,0 -5.762,-15.893 0.77,-30.18 0,0 7.054,-21.091 6.263,-29.088 0,0 -2.362,-14.349 8.409,-24.637 0,0 20.366,-27.829 43.314,-24.022 l 3.728,0.028 c 0,0 16.709,-3.542 29.673,6.778 0,0 20.965,18.696 22.732,35.666 l 1.108,15.73 c 0,0 1.321,11.651 3.437,17.303 0,0 5.309,13.774 1.456,27.558 0,0 -1.717,9.796 -1.257,19.464 0,0 -1.434,18.25 -2.66,23.25 -1.225,4.999 0.335,12.073 0.335,12.073 l -12.157,11.18 c 0,0 -69.722,-8.46 -72.317,-9.56 C 21.019,15.103 0,0 0,0"
             style="fill:#c9a98d;fill-opacity:1;fill-rule:nonzero;stroke:none"
             id="path172"
             inkscape:connector-curvature="0" /></g><g
           id="g174"
           transform="translate(402.1855,369.5322)"><path
             d="M 0,0 0.159,-0.033 C 0.32,-0.066 16.354,-3.289 28.587,6.451 28.729,6.58 49.076,24.907 50.762,41.098 l 1.104,15.68 c 0.061,0.547 1.373,11.965 3.53,17.723 0.055,0.146 5.083,13.509 1.415,26.628 l -0.034,0.145 c -0.071,0.406 -1.729,10.009 -1.282,19.7 -0.113,1.414 -1.475,18.272 -2.614,22.916 -1.047,4.274 -0.228,9.791 0.157,11.896 l -11.027,10.142 c -27.557,-3.347 -68.785,-8.547 -71.264,-9.383 -1.739,-0.739 -15.188,-10.207 -23.265,-16.01 -0.355,-0.278 -7.999,-6.407 -7.212,-15.347 l 0.011,-0.123 -1.436,-18.984 -0.07,-0.194 C -61.28,105.734 -66.69,90.38 -60.5,76.842 l 0.058,-0.148 c 0.292,-0.874 7.146,-21.49 6.333,-29.713 -0.035,-0.23 -2.092,-13.81 7.952,-23.404 l 0.174,-0.198 C -45.785,23.108 -25.881,-3.648 -4.125,-0.05 L -3.89,-0.029 0,0 Z m 6.812,-3.604 c -3.729,0 -6.393,0.463 -7.106,0.602 l -3.457,-0.026 c -9.789,-1.582 -20.623,2.194 -31.338,10.919 -7.571,6.165 -12.527,12.658 -13.234,13.607 -11.108,10.703 -8.861,25.258 -8.759,25.875 0.715,7.266 -5.73,26.932 -6.181,28.296 -6.336,13.951 -1.54,29.04 -0.854,31.039 l 1.388,18.341 c -0.87,10.71 8.026,17.595 8.407,17.884 l 0.031,0.023 c 2.166,1.556 21.233,15.233 23.905,16.365 2.655,1.126 61.044,8.251 72.722,9.669 l 0.686,0.083 13.301,-12.232 -0.185,-0.843 c -0.015,-0.067 -1.468,-6.8 -0.343,-11.394 1.24,-5.06 2.64,-22.738 2.698,-23.488 l 0.008,-0.095 -0.005,-0.094 C 58.07,111.965 59.571,102.751 59.721,101.861 63.623,87.787 58.423,74.016 58.199,73.436 56.178,68.037 54.866,56.618 54.853,56.503 L 53.75,40.837 C 51.939,23.438 31.394,4.937 30.52,4.158 22.434,-2.282 13.106,-3.604 6.812,-3.604"
             style="fill:#0c0b0b;fill-opacity:1;fill-rule:nonzero;stroke:none"
             id="path176"
             inkscape:connector-curvature="0" /></g><g
           id="g178"
           transform="translate(351.0145,512.8759)"><path
             d="m 0,0 c 0,0 19.887,0.816 34.83,11.238 l 10.266,1.996 c 0,0 -5.463,-4.446 -9.768,-5.95 0,0 18.288,2.304 28.444,9.263 l 19.418,3.058 c 0,0 -5.017,-4.645 -8.76,-5.717 0,0 17.484,0.913 22.623,3.226 0,0 9.804,-25.386 9.989,-27.186 l 1.477,-28.317 c 0,0 2.476,17.661 3.204,20.621 0.729,2.96 0.374,32.161 0.374,32.161 0,0 -11.398,16.06 -11.569,16.928 C 100.357,32.189 -10.319,14.142 -9.415,13.604 -8.51,13.067 0,0 0,0"
             style="fill:#353535;fill-opacity:1;fill-rule:nonzero;stroke:none"
             id="path180"
             inkscape:connector-curvature="0" /></g><g
           id="g182"
           transform="translate(386.6275,492.3054)"><path
             d="m 0,0 c 0,0 -7.783,5.438 -14.307,3.539 0,0 -19.056,-0.661 -19.829,-0.77 -0.774,-0.11 -5.687,-2.567 -5.687,-2.567 0,0 -0.341,6.079 3.791,9.021 l 17.802,2.293 c 0,0 7.627,3.17 12.187,1.632 0,0 5.5,-4.605 6.043,-13.148"
             style="fill:#353535;fill-opacity:1;fill-rule:nonzero;stroke:none"
             id="path184"
             inkscape:connector-curvature="0" /></g><g
           id="g186"
           transform="translate(411.9389,494.4053)"><path
             d="m 0,0 c 0.583,0.03 34.71,0.058 40.134,-1.607 l 2.145,0.112 c 0,0 0.751,2.961 -0.192,3.691 0,0 -4.329,4.665 -13.751,7.269 C 27.15,9.793 5.362,9.24 -0.365,6.994 L -0.97,3.651 0,0 Z"
             style="fill:#353535;fill-opacity:1;fill-rule:nonzero;stroke:none"
             id="path188"
             inkscape:connector-curvature="0" /></g><g
           id="g190"
           transform="translate(375.2329,479.7519)"><path
             d="m 0,0 c 0.176,-3.368 -2.412,-6.241 -5.78,-6.417 -3.368,-0.175 -6.241,2.412 -6.417,5.781 -0.176,3.368 2.412,6.241 5.78,6.416 C -3.049,5.956 -0.176,3.368 0,0"
             style="fill:#353535;fill-opacity:1;fill-rule:nonzero;stroke:none"
             id="path192"
             inkscape:connector-curvature="0" /></g><g
           id="g194"
           transform="translate(437.6092,479.8897)"><path
             d="m 0,0 c 0.176,-3.368 -2.412,-6.241 -5.78,-6.417 -3.368,-0.175 -6.241,2.412 -6.417,5.781 -0.176,3.368 2.412,6.241 5.78,6.416 C -3.049,5.956 -0.176,3.368 0,0"
             style="fill:#353535;fill-opacity:1;fill-rule:nonzero;stroke:none"
             id="path196"
             inkscape:connector-curvature="0" /></g><g
           id="g198"><g
             id="g200" /><g
             id="g206"><g
               clip-path="url(#clipPath202)"
               id="g208"
               style="opacity:0.50999499"><g
                 transform="translate(362.7968,486.0947)"
                 id="g210"><path
                   d="M 0,0 C 0,0 3.765,4.385 11.947,0.623 11.947,0.623 4.369,7.728 0,0"
                   style="fill:#af8254;fill-opacity:1;fill-rule:nonzero;stroke:none"
                   id="path212"
                   inkscape:connector-curvature="0" /></g></g></g></g><g
           id="g214"><g
             id="g216" /><g
             id="g222"><g
               clip-path="url(#clipPath218)"
               id="g224"
               style="opacity:0.50999499"><g
                 transform="translate(425.9169,485.9792)"
                 id="g226"><path
                   d="M 0,0 C 0,0 6.386,2.671 10.521,-0.035 10.521,-0.035 5.314,6.413 0,0"
                   style="fill:#af8254;fill-opacity:1;fill-rule:nonzero;stroke:none"
                   id="path228"
                   inkscape:connector-curvature="0" /></g></g></g></g><g
           id="g230"><g
             id="g232" /><g
             id="g238"><g
               clip-path="url(#clipPath234)"
               id="g240"
               style="opacity:0.369995"><g
                 transform="translate(367.8134,410.4833)"
                 id="g242"><path
                   d="m 0,0 c 0,0 1.556,3.782 6.112,6.065 0,0 13.392,6.526 22.157,6.554 L 28.033,17.144 7.48,13.442 C 7.48,13.442 -2.131,12.843 0,0"
                   style="fill:#353535;fill-opacity:1;fill-rule:nonzero;stroke:none"
                   id="path244"
                   inkscape:connector-curvature="0" /></g></g></g></g><g
           id="g246"><g
             id="g248" /><g
             id="g254"><g
               clip-path="url(#clipPath250)"
               id="g256"
               style="opacity:0.369995"><g
                 transform="translate(401.2344,427.9082)"
                 id="g258"><path
                   d="m 0,0 0.236,-4.525 c 0,0 15.344,-0.019 24.983,-5.555 0,0 5.223,-3.039 5.734,-5.35 0,0 1.537,7.872 -3.017,11.141 L 0,0 Z"
                   style="fill:#353535;fill-opacity:1;fill-rule:nonzero;stroke:none"
                   id="path260"
                   inkscape:connector-curvature="0" /></g></g></g></g><g
           id="g262"><g
             id="g264" /><g
             id="g270"><g
               clip-path="url(#clipPath266)"
               id="g272"
               style="opacity:0.11000103"><g
                 transform="translate(346.1549,423.2859)"
                 id="g274"><path
                   d="m 0,0 c 0,0 7.428,-20.071 14.741,-25.825 l 1.918,2.437 26.416,-19.075 2.978,-13.12 c 0,0 -15.352,-2.298 -35.613,22.293 0,0 -8.976,8.401 -9.575,16.717 0,0 -0.824,5.336 -0.6,8.294 L 0,0 Z"
                   style="fill:#353535;fill-opacity:1;fill-rule:nonzero;stroke:none"
                   id="path276"
                   inkscape:connector-curvature="0" /></g><g
                 transform="translate(397.0922,367.8326)"
                 id="g278"><path
                   d="m 0,0 c 0,0 -2.477,6.843 1.324,10.548 l 4.014,3.326 5.458,-3.806 c 0,0 1.957,-3.901 1.327,-10.503 0,0 -4.932,-0.242 -7.18,0.633 L 0,0 Z"
                   style="fill:#353535;fill-opacity:1;fill-rule:nonzero;stroke:none"
                   id="path280"
                   inkscape:connector-curvature="0" /></g><g
                 transform="translate(414.167,367.7565)"
                 id="g282"><path
                   d="m 0,0 -0.376,7.211 c 0,0 20.545,18.728 22.059,21.437 l 0.122,-2.332 c 0,0 11.736,6.322 18.788,20.947 0,0 0.579,-8.873 -4.404,-16.861 C 36.189,30.402 19.258,0.091 0,0"
                   style="fill:#353535;fill-opacity:1;fill-rule:nonzero;stroke:none"
                   id="path284"
                   inkscape:connector-curvature="0" /></g></g></g></g><g
           id="g286"><g
             id="g288" /><g
             id="g294"><g
               clip-path="url(#clipPath290)"
               id="g296"
               style="opacity:0.05000311"><g
                 transform="translate(367.8134,410.4833)"
                 id="g298"><path
                   d="M 0,0 1.219,-15.005 10.833,-22.018 2.972,3.923 0,0 Z"
                   style="fill:#353535;fill-opacity:1;fill-rule:nonzero;stroke:none"
                   id="path300"
                   inkscape:connector-curvature="0" /></g></g></g></g><g
           id="g302"><g
             id="g304" /><g
             id="g310"><g
               clip-path="url(#clipPath306)"
               id="g312"
               style="opacity:0.05000311"><g
                 transform="translate(432.5918,412.9866)"
                 id="g314"><path
                   d="M 0,0 0.27,-19.967 -7.13,-27.174 -3.365,3.592 0,0 Z"
                   style="fill:#353535;fill-opacity:1;fill-rule:nonzero;stroke:none"
                   id="path316"
                   inkscape:connector-curvature="0" /></g></g></g></g><g
           id="g318"><g
             id="g320" /><g
             id="g326"><g
               clip-path="url(#clipPath322)"
               id="g328"
               style="opacity:0.27000403"><g
                 transform="translate(344.0614,433.0099)"
                 id="g330"><path
                   d="m 0,0 c 0,0 11.939,-8.919 12.528,-20.221 0,0 -5.162,8.997 -10.345,7.712 L 0,0 Z"
                   style="fill:#a5784a;fill-opacity:1;fill-rule:nonzero;stroke:none"
                   id="path332"
                   inkscape:connector-curvature="0" /></g></g></g></g><g
           id="g334"
           transform="translate(350.1561,514.1874)"><path
             d="m 0,0 c 0,0 13.843,1.801 21.373,4.614 0,0 7.153,2.042 12.069,5.386 l 3.891,0.246 c 0,0 -6.623,-7.849 -36.567,-12.916 L 0,0 Z"
             style="fill:#0c0b0b;fill-opacity:1;fill-rule:nonzero;stroke:none"
             id="path336"
             inkscape:connector-curvature="0" /></g><g
           id="g338"
           transform="translate(385.0535,522.4733)"><path
             d="m 0,0 8.899,2.005 -7.61,-4.319 c 0,0 16.577,0.861 28.444,9.263 l -0.124,2.394 c 0,0 -12.738,-6.99 -17.146,-7.404 L 15.933,5.5 15.881,6.499 -1.455,1.714 0,0 Z"
             style="fill:#0c0b0b;fill-opacity:1;fill-rule:nonzero;stroke:none"
             id="path340"
             inkscape:connector-curvature="0" /></g><g
           id="g342"
           transform="translate(413.4844,528.7506)"><path
             d="m 0,0 18.359,1.746 -5.77,-3.521 c 0,0 7.806,-1.42 21.994,3.015 L 42.79,-23.649 44.506,-25.34 35.92,4.878 c 0,0 -10.817,-3.693 -15.68,-4.323 L 25.145,5.067 1.178,3.065 0,0 Z"
             style="fill:#0c0b0b;fill-opacity:1;fill-rule:nonzero;stroke:none"
             id="path344"
             inkscape:connector-curvature="0" /></g><g
           id="g346"
           transform="translate(402.0306,440.515)"><path
             d="m 0,0 c -7.819,-1.131 -15.841,2.55 -16.185,2.71 l -0.819,0.381 3.725,33.887 2.502,-0.276 L -14.3,4.646 C -12.091,3.764 -5.773,1.586 0.009,2.548 L 0.425,0.066 C 0.284,0.042 0.141,0.02 0,0"
             style="fill:#232222;fill-opacity:1;fill-rule:nonzero;stroke:none"
             id="path348"
             inkscape:connector-curvature="0" /></g><g
           id="g350"
           transform="translate(385.3,446.0895)"><path
             d="M 0,0 C 0,0 -0.333,-2.067 1.425,-3.242 3.337,-4.519 1.007,-4.658 1.007,-4.658 l -3.113,1.598 c 0,0 0.341,4.231 0.607,4.416 C -1.232,1.541 0,0 0,0"
             style="fill:#c9a98d;fill-opacity:1;fill-rule:nonzero;stroke:none"
             id="path352"
             inkscape:connector-curvature="0" /></g><g
           id="g354"
           transform="translate(400.6549,442.8936)"><path
             d="M 0,0 C 0,0 1.699,-0.601 1.801,-2.312 1.902,-4.023 5.154,-3.699 4.743,-3.392 4.332,-3.085 4.927,3.443 4.363,3.292 3.798,3.14 0,0 0,0"
             style="fill:#c9a98d;fill-opacity:1;fill-rule:nonzero;stroke:none"
             id="path356"
             inkscape:connector-curvature="0" /></g><g
           id="g358"
           transform="translate(401.71,405.3988)"><path
             d="m 0,0 c -11.111,-0.58 -19.186,6.299 -19.305,6.402 l 1.58,1.812 C -17.077,7.65 -1.641,-5.412 15.721,9.165 L 17.266,7.324 C 11.181,2.215 5.251,0.274 0,0"
             style="fill:#070707;fill-opacity:1;fill-rule:nonzero;stroke:none"
             id="path360"
             inkscape:connector-curvature="0" /></g><g
           id="g362"><g
             id="g364" /><g
             id="g370"><g
               clip-path="url(#clipPath366)"
               id="g372"
               style="opacity:0.36000103"><g
                 transform="translate(439.5968,367.6689)"
                 id="g374"><path
                   d="m 0,0 0,-9.088 c 0,0 32.552,-15.181 45.353,-67.396 -37.027,-45.648 -113.155,-53.889 -113.155,-53.889 54.609,-7.234 95.657,10.532 117.515,26.598 0.312,-2.516 -0.22,2.652 0,0 15.598,10.537 27.476,23.203 33.024,29.92 C 75.214,-44.338 53.083,-12.217 0,0"
                   style="fill:#222123;fill-opacity:1;fill-rule:nonzero;stroke:none"
                   id="path376"
                   inkscape:connector-curvature="0" /></g></g></g></g></g></g></g></svg>